<?xml version="1.0" encoding="UTF-8" standalone="no"?>
<!DOCTYPE svg PUBLIC "-//W3C//DTD SVG 1.1//EN"
 "http://www.w3.org/Graphics/SVG/1.1/DTD/svg11.dtd">
<!-- Generated by graphviz version 2.36.0 (20140111.2315)
 -->
<!-- Title: %3 Pages: 1 -->
<svg width="446pt" height="44pt"
 viewBox="0.00 0.00 446.00 44.00" xmlns="http://www.w3.org/2000/svg" xmlns:xlink="http://www.w3.org/1999/xlink">
<g id="graph0" class="graph" transform="scale(1 1) rotate(0) translate(4 40)">
<title>%3</title>
<polygon fill="white" stroke="none" points="-4,4 -4,-40 442,-40 442,4 -4,4"/>
<!-- web&#45;server -->
<g id="node1" class="node"><title>web&#45;server</title>
<ellipse fill="none" stroke="black" cx="50" cy="-18" rx="50.0912" ry="18"/>
<text text-anchor="middle" x="50" y="-14.3" font-family="Times,serif" font-size="14.00">web&#45;server</text>
</g>
<!-- event&#45;processor -->
<g id="node2" class="node"><title>event&#45;processor</title>
<ellipse fill="none" stroke="black" cx="203" cy="-18" rx="66.0889" ry="18"/>
<text text-anchor="middle" x="203" y="-14.3" font-family="Times,serif" font-size="14.00">event&#45;processor</text>
</g>
<!-- web&#45;server&#45;&gt;event&#45;processor -->
<g id="edge1" class="edge"><title>web&#45;server&#45;&gt;event&#45;processor</title>
<path fill="none" stroke="black" d="M100.443,-18C108.727,-18 117.488,-18 126.254,-18"/>
<polygon fill="black" stroke="black" points="126.517,-21.5001 136.517,-18 126.517,-14.5001 126.517,-21.5001"/>
</g>
<!-- data&#45;warehouse -->
<g id="node3" class="node"><title>data&#45;warehouse</title>
<ellipse fill="none" stroke="black" cx="372" cy="-18" rx="65.7887" ry="18"/>
<text text-anchor="middle" x="372" y="-14.3" font-family="Times,serif" font-size="14.00">data&#45;warehouse</text>
</g>
<!-- event&#45;processor&#45;&gt;data&#45;warehouse -->
<g id="edge2" class="edge"><title>event&#45;processor&#45;&gt;data&#45;warehouse</title>
<path fill="none" stroke="black" d="M269.524,-18C278.193,-18 287.134,-18 295.948,-18"/>
<polygon fill="black" stroke="black" points="296.213,-21.5001 306.213,-18 296.213,-14.5001 296.213,-21.5001"/>
</g>
</g>
</svg>
