<?xml version="1.0" encoding="UTF-8" standalone="no"?>
<!DOCTYPE svg PUBLIC "-//W3C//DTD SVG 1.1//EN"
 "http://www.w3.org/Graphics/SVG/1.1/DTD/svg11.dtd">
<!-- Generated by graphviz version 2.36.0 (20140111.2315)
 -->
<!-- Title: %3 Pages: 1 -->
<svg width="618pt" height="112pt"
 viewBox="0.00 0.00 618.00 112.00" xmlns="http://www.w3.org/2000/svg" xmlns:xlink="http://www.w3.org/1999/xlink">
<g id="graph0" class="graph" transform="scale(1 1) rotate(0) translate(4 108)">
<title>%3</title>
<polygon fill="white" stroke="none" points="-4,4 -4,-108 614,-108 614,4 -4,4"/>
<g id="clust1" class="cluster"><title>cluster1</title>
<polygon fill="none" stroke="black" points="82,-8 82,-96 512,-96 512,-8 82,-8"/>
<text text-anchor="start" x="238.5" y="-81.8" font-family="Times,serif" font-weight="bold" font-size="14.00">observation window</text>
<text text-anchor="start" x="275.5" y="-67.8" font-family="Times,serif" font-size="14.00">time →</text>
</g>
<!-- e2 -->
<g id="node1" class="node"><title>e2</title>
<ellipse fill="#00aa00" stroke="#5d8aa8" cx="117" cy="-34" rx="27" ry="18"/>
<text text-anchor="middle" x="117" y="-30.3" font-family="Times,serif" font-size="14.00">e2</text>
</g>
<!-- e3 -->
<g id="node5" class="node"><title>e3</title>
<ellipse fill="#aa0000" stroke="#5d8aa8" cx="207" cy="-34" rx="27" ry="18"/>
<text text-anchor="middle" x="207" y="-30.3" font-family="Times,serif" font-size="14.00">e3</text>
</g>
<!-- e2&#45;&#45;e3 -->
<!-- e4 -->
<g id="node2" class="node"><title>e4</title>
<ellipse fill="#00aa00" stroke="#5d8aa8" cx="297" cy="-34" rx="27" ry="18"/>
<text text-anchor="middle" x="297" y="-30.3" font-family="Times,serif" font-size="14.00">e4</text>
</g>
<!-- e5 -->
<g id="node3" class="node"><title>e5</title>
<ellipse fill="#00aa00" stroke="#5d8aa8" cx="387" cy="-34" rx="27" ry="18"/>
<text text-anchor="middle" x="387" y="-30.3" font-family="Times,serif" font-size="14.00">e5</text>
</g>
<!-- e4&#45;&#45;e5 -->
<!-- e6 -->
<g id="node4" class="node"><title>e6</title>
<ellipse fill="#00aa00" stroke="#5d8aa8" cx="477" cy="-34" rx="27" ry="18"/>
<text text-anchor="middle" x="477" y="-30.3" font-family="Times,serif" font-size="14.00">e6</text>
</g>
<!-- e5&#45;&#45;e6 -->
<!-- e7 -->
<g id="node6" class="node"><title>e7</title>
<ellipse fill="none" stroke="black" cx="575" cy="-34" rx="34.7971" ry="25.4118"/>
<text text-anchor="start" x="558.5" y="-37.8" font-family="Times,serif" font-style="italic" font-size="14.00">future</text>
<text text-anchor="start" x="560.5" y="-23.8" font-family="Times,serif" font-style="italic" font-size="14.00">event</text>
</g>
<!-- e6&#45;&#45;e7 -->
<!-- e3&#45;&#45;e4 -->
<!-- e1 -->
<g id="node7" class="node"><title>e1</title>
<ellipse fill="none" stroke="black" cx="27" cy="-34" rx="27" ry="18"/>
<text text-anchor="middle" x="27" y="-30.3" font-family="Times,serif" font-size="14.00">e1</text>
</g>
<!-- e1&#45;&#45;e2 -->
</g>
</svg>
