<?xml version="1.0" encoding="UTF-8" standalone="no"?>
<!DOCTYPE svg PUBLIC "-//W3C//DTD SVG 1.1//EN"
 "http://www.w3.org/Graphics/SVG/1.1/DTD/svg11.dtd">
<!-- Generated by graphviz version 2.36.0 (20140111.2315)
 -->
<!-- Title: foo Pages: 1 -->
<svg width="624pt" height="98pt"
 viewBox="0.00 0.00 624.00 98.00" xmlns="http://www.w3.org/2000/svg" xmlns:xlink="http://www.w3.org/1999/xlink">
<g id="graph0" class="graph" transform="scale(1 1) rotate(0) translate(4 94)">
<title>foo</title>
<polygon fill="white" stroke="none" points="-4,4 -4,-94 620,-94 620,4 -4,4"/>
<!-- A -->
<g id="node1" class="node"><title>A</title>
<ellipse fill="none" stroke="black" cx="50" cy="-45" rx="50.0912" ry="18"/>
<text text-anchor="middle" x="50" y="-41.3" font-family="Times,serif" font-size="14.00">web&#45;server</text>
</g>
<!-- B -->
<g id="node2" class="node"><title>B</title>
<ellipse fill="none" stroke="black" cx="317" cy="-45" rx="66.0889" ry="18"/>
<text text-anchor="middle" x="317" y="-41.3" font-family="Times,serif" font-size="14.00">event&#45;processor</text>
</g>
<!-- A&#45;&gt;B -->
<g id="edge1" class="edge"><title>A&#45;&gt;B</title>
<path fill="none" stroke="#00aa00" d="M100.223,-45C139.604,-45 195.49,-45 240.52,-45"/>
<polygon fill="#00aa00" stroke="#00aa00" points="240.538,-48.5001 250.538,-45 240.538,-41.5001 240.538,-48.5001"/>
<text text-anchor="middle" x="175" y="-48.8" font-family="Times,serif" font-size="14.00">OK(pass=1/1 100%)</text>
</g>
<!-- C -->
<g id="node3" class="node"><title>C</title>
<ellipse fill="none" stroke="black" cx="575" cy="-72" rx="35.9954" ry="18"/>
<text text-anchor="middle" x="575" y="-68.3" font-family="Times,serif" font-size="14.00">journal</text>
</g>
<!-- B&#45;&gt;C -->
<g id="edge2" class="edge"><title>B&#45;&gt;C</title>
<path fill="none" stroke="#00aa00" d="M378.993,-51.4329C425.347,-56.3218 488.029,-62.9328 529.676,-67.3252"/>
<polygon fill="#00aa00" stroke="#00aa00" points="529.476,-70.8234 539.788,-68.3917 530.21,-63.862 529.476,-70.8234"/>
<text text-anchor="middle" x="459" y="-68.8" font-family="Times,serif" font-size="14.00">OK(pass=1/1 100%)</text>
</g>
<!-- D -->
<g id="node4" class="node"><title>D</title>
<ellipse fill="none" stroke="black" cx="575" cy="-18" rx="40.8928" ry="18"/>
<text text-anchor="middle" x="575" y="-14.3" font-family="Times,serif" font-size="14.00">database</text>
</g>
<!-- B&#45;&gt;D -->
<g id="edge3" class="edge"><title>B&#45;&gt;D</title>
<path fill="none" stroke="#00aa00" d="M378.093,-37.6984C386.128,-36.7654 394.262,-35.8429 402,-35 443.226,-30.5092 490.068,-25.9126 524.448,-22.6333"/>
<polygon fill="#00aa00" stroke="#00aa00" points="525.073,-26.0897 534.697,-21.6594 524.411,-19.1211 525.073,-26.0897"/>
<text text-anchor="middle" x="459" y="-38.8" font-family="Times,serif" font-size="14.00">OK(pass=1/1 100%)</text>
</g>
</g>
</svg>
