<?xml version="1.0" encoding="UTF-8" standalone="no"?>
<!DOCTYPE svg PUBLIC "-//W3C//DTD SVG 1.1//EN"
 "http://www.w3.org/Graphics/SVG/1.1/DTD/svg11.dtd">
<!-- Generated by graphviz version 2.36.0 (20140111.2315)
 -->
<!-- Title: Example Pages: 1 -->
<svg width="561pt" height="248pt"
 viewBox="0.00 0.00 561.00 248.00" xmlns="http://www.w3.org/2000/svg" xmlns:xlink="http://www.w3.org/1999/xlink">
<g id="graph0" class="graph" transform="scale(1 1) rotate(0) translate(4 244)">
<title>Example</title>
<polygon fill="white" stroke="none" points="-4,4 -4,-244 557,-244 557,4 -4,4"/>
<!-- A -->
<g id="node1" class="node"><title>A</title>
<ellipse fill="none" stroke="black" cx="173" cy="-222" rx="50.0684" ry="18"/>
<text text-anchor="middle" x="173" y="-218.3" font-family="Times,serif" font-size="14.00">web&#45;server</text>
</g>
<!-- B -->
<g id="node2" class="node"><title>B</title>
<ellipse fill="none" stroke="black" cx="173" cy="-120" rx="65.9423" ry="18"/>
<text text-anchor="middle" x="173" y="-116.3" font-family="Times,serif" font-size="14.00">event&#45;processor</text>
</g>
<!-- A&#45;&gt;B -->
<g id="edge1" class="edge"><title>A&#45;&gt;B</title>
<path fill="none" stroke="#00aa00" d="M173,-203.581C173,-188.382 173,-166.067 173,-148.464"/>
<polygon fill="#00aa00" stroke="#00aa00" points="176.5,-148.219 173,-138.219 169.5,-148.219 176.5,-148.219"/>
<text text-anchor="middle" x="283" y="-174.8" font-family="Times,serif" font-size="14.00">OK(pass=3/3 100%),</text>
<text text-anchor="middle" x="283" y="-159.8" font-family="Times,serif" font-size="14.00">Check(within=10s,ok=3,warn=0,fail=0)</text>
</g>
<!-- C -->
<g id="node3" class="node"><title>C</title>
<ellipse fill="none" stroke="black" cx="35" cy="-18" rx="35.6194" ry="18"/>
<text text-anchor="middle" x="35" y="-14.3" font-family="Times,serif" font-size="14.00">journal</text>
</g>
<!-- B&#45;&gt;C -->
<g id="edge3" class="edge"><title>B&#45;&gt;C</title>
<path fill="none" stroke="#aa0000" d="M114.166,-111.737C80.2707,-106.21 42.372,-97.2614 32,-84 23.6529,-73.3276 23.7856,-58.388 26.2846,-45.5222"/>
<polygon fill="#aa0000" stroke="#aa0000" points="29.6936,-46.316 28.6793,-35.7698 22.8955,-44.6466 29.6936,-46.316"/>
<text text-anchor="middle" x="158.5" y="-72.8" font-family="Times,serif" font-size="14.00">NOK(pass=1/4 25%),</text>
<text text-anchor="middle" x="158.5" y="-57.8" font-family="Times,serif" font-size="14.00">Check=(within=1000ms,ok=3,warn=1,fail=0)</text>
</g>
<!-- D -->
<g id="node4" class="node"><title>D</title>
<ellipse fill="none" stroke="black" cx="311" cy="-18" rx="40.4202" ry="18"/>
<text text-anchor="middle" x="311" y="-14.3" font-family="Times,serif" font-size="14.00">database</text>
</g>
<!-- B&#45;&gt;D -->
<g id="edge2" class="edge"><title>B&#45;&gt;D</title>
<path fill="none" stroke="#aaaa00" d="M232.884,-112.141C252.872,-107.164 273.88,-98.6246 289,-84 299.271,-74.066 304.747,-59.1729 307.666,-46.148"/>
<polygon fill="#aaaa00" stroke="#aaaa00" points="311.123,-46.7033 309.502,-36.2331 304.24,-45.4286 311.123,-46.7033"/>
<text text-anchor="middle" x="429.5" y="-72.8" font-family="Times,serif" font-size="14.00">WARN(pass=4/5 80%),</text>
<text text-anchor="middle" x="429.5" y="-57.8" font-family="Times,serif" font-size="14.00">Check=(within=500ms,ok=3,warn=1,fail=2)</text>
</g>
</g>
</svg>
