<?xml version="1.0" encoding="UTF-8" standalone="yes"?><svg xmlns="http://www.w3.org/2000/svg" xmlns:xlink="http://www.w3.org/1999/xlink" height="316px" style="width:713px;height:316px;" version="1.1" viewBox="0 0 713 316" width="713px"><defs><filter height="300%" id="f1" width="300%" x="-1" y="-1"><feGaussianBlur result="blurOut" stdDeviation="2.0"/><feColorMatrix in="blurOut" result="blurOut2" type="matrix" values="0 0 0 0 0 0 0 0 0 0 0 0 0 0 0 0 0 0 .4 0"/><feOffset dx="4.0" dy="4.0" in="blurOut2" result="blurOut3"/><feBlend in="SourceGraphic" in2="blurOut3" mode="normal"/></filter></defs><g><rect fill="#FFFFFF" filter="url(#f1)" height="211.7969" style="stroke: #A80036; stroke-width: 1.0;" width="10" x="31.5" y="48.2969"/><rect fill="#FFFFFF" filter="url(#f1)" height="190.7969" style="stroke: #A80036; stroke-width: 1.0;" width="10" x="153.5" y="69.2969"/><rect fill="#FFFFFF" filter="url(#f1)" height="73.3984" style="stroke: #A80036; stroke-width: 1.0;" width="10" x="330.5" y="157.5625"/><rect fill="#FFFFFF" filter="url(#f1)" height="93.3984" style="stroke: #A80036; stroke-width: 1.0;" width="10" x="652.5" y="103.4297"/><line style="stroke: #A80036; stroke-width: 1.0; stroke-dasharray: 5.0,5.0;" x1="36" x2="36" y1="38.2969" y2="278.2266"/><line style="stroke: #A80036; stroke-width: 1.0; stroke-dasharray: 5.0,5.0;" x1="158" x2="158" y1="38.2969" y2="278.2266"/><line style="stroke: #A80036; stroke-width: 1.0; stroke-dasharray: 5.0,5.0;" x1="335" x2="335" y1="38.2969" y2="278.2266"/><line style="stroke: #A80036; stroke-width: 1.0; stroke-dasharray: 5.0,5.0;" x1="657" x2="657" y1="38.2969" y2="278.2266"/><rect fill="#FEFECE" filter="url(#f1)" height="30.2969" style="stroke: #A80036; stroke-width: 1.5;" width="53" x="8" y="3"/><text fill="#000000" font-family="sans-serif" font-size="14" lengthAdjust="spacingAndGlyphs" textLength="39" x="15" y="22.9951">Client</text><rect fill="#FEFECE" filter="url(#f1)" height="30.2969" style="stroke: #A80036; stroke-width: 1.5;" width="53" x="8" y="277.2266"/><text fill="#000000" font-family="sans-serif" font-size="14" lengthAdjust="spacingAndGlyphs" textLength="39" x="15" y="297.2217">Client</text><rect fill="#FEFECE" filter="url(#f1)" height="30.2969" style="stroke: #A80036; stroke-width: 1.5;" width="99" x="107" y="3"/><text fill="#000000" font-family="sans-serif" font-size="14" lengthAdjust="spacingAndGlyphs" textLength="85" x="114" y="22.9951">Web Service</text><rect fill="#FEFECE" filter="url(#f1)" height="30.2969" style="stroke: #A80036; stroke-width: 1.5;" width="99" x="107" y="277.2266"/><text fill="#000000" font-family="sans-serif" font-size="14" lengthAdjust="spacingAndGlyphs" textLength="85" x="114" y="297.2217">Web Service</text><rect fill="#FEFECE" filter="url(#f1)" height="30.2969" style="stroke: #A80036; stroke-width: 1.5;" width="127" x="270" y="3"/><text fill="#000000" font-family="sans-serif" font-size="14" lengthAdjust="spacingAndGlyphs" textLength="113" x="277" y="22.9951">Event Processor</text><rect fill="#FEFECE" filter="url(#f1)" height="30.2969" style="stroke: #A80036; stroke-width: 1.5;" width="127" x="270" y="277.2266"/><text fill="#000000" font-family="sans-serif" font-size="14" lengthAdjust="spacingAndGlyphs" textLength="113" x="277" y="297.2217">Event Processor</text><rect fill="#00FF88" filter="url(#f1)" height="30.2969" style="stroke: #A80036; stroke-width: 1.5;" width="97" x="607" y="3"/><text fill="#000000" font-family="sans-serif" font-size="14" lengthAdjust="spacingAndGlyphs" textLength="83" x="614" y="22.9951">Observatory</text><rect fill="#00FF88" filter="url(#f1)" height="30.2969" style="stroke: #A80036; stroke-width: 1.5;" width="97" x="607" y="277.2266"/><text fill="#000000" font-family="sans-serif" font-size="14" lengthAdjust="spacingAndGlyphs" textLength="83" x="614" y="297.2217">Observatory</text><rect fill="#FFFFFF" filter="url(#f1)" height="211.7969" style="stroke: #A80036; stroke-width: 1.0;" width="10" x="31.5" y="48.2969"/><rect fill="#FFFFFF" filter="url(#f1)" height="190.7969" style="stroke: #A80036; stroke-width: 1.0;" width="10" x="153.5" y="69.2969"/><rect fill="#FFFFFF" filter="url(#f1)" height="73.3984" style="stroke: #A80036; stroke-width: 1.0;" width="10" x="330.5" y="157.5625"/><rect fill="#FFFFFF" filter="url(#f1)" height="93.3984" style="stroke: #A80036; stroke-width: 1.0;" width="10" x="652.5" y="103.4297"/><polygon fill="#A80036" points="141.5,65.2969,151.5,69.2969,141.5,73.2969,145.5,69.2969" style="stroke: #A80036; stroke-width: 1.0;"/><line style="stroke: #A80036; stroke-width: 1.0;" x1="41.5" x2="147.5" y1="69.2969" y2="69.2969"/><text fill="#000000" font-family="monospaced" font-size="13" lengthAdjust="spacingAndGlyphs" textLength="64" x="48.5" y="64.3638">GET /foo</text><polygon fill="#A80036" points="640.5,99.4297,650.5,103.4297,640.5,107.4297,644.5,103.4297" style="stroke: #A80036; stroke-width: 1.0;"/><line style="stroke: #A80036; stroke-width: 1.0; stroke-dasharray: 2.0,2.0;" x1="163.5" x2="646.5" y1="103.4297" y2="103.4297"/><text fill="#000000" font-family="monospaced" font-size="13" lengthAdjust="spacingAndGlyphs" textLength="136" x="170.5" y="98.4966">POST (web-server,</text><text fill="#000000" font-family="monospaced" font-size="13" font-weight="bold" lengthAdjust="spacingAndGlyphs" textLength="64" x="314.5" y="98.4966">abcd1234</text><text fill="#000000" font-family="monospaced" font-size="13" lengthAdjust="spacingAndGlyphs" textLength="40" x="378.5" y="98.4966">, T1)</text><polygon fill="#FBFB77" filter="url(#f1)" points="81,82.4297,81,107.4297,144,107.4297,144,92.4297,134,82.4297,81,82.4297" style="stroke: #A80036; stroke-width: 1.0;"/><line style="stroke: #A80036; stroke-width: 1.0;" x1="134" x2="134" y1="82.4297" y2="92.4297"/><line style="stroke: #A80036; stroke-width: 1.0;" x1="144" x2="134" y1="92.4297" y2="92.4297"/><text fill="#000000" font-family="sans-serif" font-size="13" lengthAdjust="spacingAndGlyphs" textLength="42" x="87" y="99.4966">async!</text><polygon fill="#A80036" points="318.5,153.5625,328.5,157.5625,318.5,161.5625,322.5,157.5625" style="stroke: #A80036; stroke-width: 1.0;"/><line style="stroke: #A80036; stroke-width: 1.0;" x1="163.5" x2="324.5" y1="157.5625" y2="157.5625"/><text fill="#000000" font-family="sans-serif" font-size="13" lengthAdjust="spacingAndGlyphs" textLength="101" x="170.5" y="137.6294">POST /events ...</text><text fill="#000000" font-family="sans-serif" font-size="13" lengthAdjust="spacingAndGlyphs" textLength="148" x="170.5" y="152.7622">X-Tracing-ID: abcd1234</text><polygon fill="#FBFB77" filter="url(#f1)" points="56,121.5625,56,161.5625,144,161.5625,144,131.5625,134,121.5625,56,121.5625" style="stroke: #A80036; stroke-width: 1.0;"/><line style="stroke: #A80036; stroke-width: 1.0;" x1="134" x2="134" y1="121.5625" y2="131.5625"/><line style="stroke: #A80036; stroke-width: 1.0;" x1="144" x2="134" y1="131.5625" y2="131.5625"/><text fill="#000000" font-family="sans-serif" font-size="13" lengthAdjust="spacingAndGlyphs" textLength="59" x="62" y="138.6294">tracing id</text><text fill="#000000" font-family="sans-serif" font-size="13" lengthAdjust="spacingAndGlyphs" textLength="67" x="62" y="153.7622">in headers</text><polygon fill="#A80036" points="645.5,192.8281,655.5,196.8281,645.5,200.8281,649.5,196.8281" style="stroke: #A80036; stroke-width: 1.0;"/><line style="stroke: #A80036; stroke-width: 1.0; stroke-dasharray: 2.0,2.0;" x1="340.5" x2="651.5" y1="196.8281" y2="196.8281"/><text fill="#000000" font-family="monospaced" font-size="13" lengthAdjust="spacingAndGlyphs" textLength="176" x="347.5" y="191.895">POST (event-processor,</text><text fill="#000000" font-family="monospaced" font-size="13" font-weight="bold" lengthAdjust="spacingAndGlyphs" textLength="64" x="531.5" y="191.895">abcd1234</text><text fill="#000000" font-family="monospaced" font-size="13" lengthAdjust="spacingAndGlyphs" textLength="40" x="595.5" y="191.895">, T2)</text><polygon fill="#FBFB77" filter="url(#f1)" points="167,175.8281,167,200.8281,321,200.8281,321,185.8281,311,175.8281,167,175.8281" style="stroke: #A80036; stroke-width: 1.0;"/><line style="stroke: #A80036; stroke-width: 1.0;" x1="311" x2="311" y1="175.8281" y2="185.8281"/><line style="stroke: #A80036; stroke-width: 1.0;" x1="321" x2="311" y1="185.8281" y2="185.8281"/><text fill="#000000" font-family="sans-serif" font-size="13" lengthAdjust="spacingAndGlyphs" textLength="133" x="173" y="192.895">async + upstream id</text><polygon fill="#A80036" points="174.5,226.9609,164.5,230.9609,174.5,234.9609,170.5,230.9609" style="stroke: #A80036; stroke-width: 1.0;"/><line style="stroke: #A80036; stroke-width: 1.0;" x1="168.5" x2="334.5" y1="230.9609" y2="230.9609"/><text fill="#000000" font-family="monospaced" font-size="13" lengthAdjust="spacingAndGlyphs" textLength="128" x="180.5" y="226.0278">HTTP 201 Created</text><polygon fill="#A80036" points="47.5,256.0938,37.5,260.0938,47.5,264.0938,43.5,260.0938" style="stroke: #A80036; stroke-width: 1.0;"/><line style="stroke: #A80036; stroke-width: 1.0;" x1="41.5" x2="157.5" y1="260.0938" y2="260.0938"/><text fill="#000000" font-family="monospaced" font-size="13" lengthAdjust="spacingAndGlyphs" textLength="88" x="53.5" y="255.1606">HTTP 200 OK</text></g></svg>